<?xml version="1.0" encoding="UTF-8" standalone="no"?>
<!-- Created with Inkscape (http://www.inkscape.org/) -->

<svg
   width="1920"
   height="300"
   viewBox="0 0 507.99999 79.374998"
   version="1.1"
   id="svg1"
   inkscape:export-filename="bttm-header.svg"
   inkscape:export-xdpi="96"
   inkscape:export-ydpi="96"
   xmlns:inkscape="http://www.inkscape.org/namespaces/inkscape"
   xmlns:sodipodi="http://sodipodi.sourceforge.net/DTD/sodipodi-0.dtd"
   xmlns="http://www.w3.org/2000/svg"
   xmlns:svg="http://www.w3.org/2000/svg">
  <sodipodi:namedview
     id="namedview1"
     pagecolor="#ffffff"
     bordercolor="#111111"
     borderopacity="1"
     inkscape:showpageshadow="0"
     inkscape:pageopacity="0"
     inkscape:pagecheckerboard="1"
     inkscape:deskcolor="#d1d1d1"
     inkscape:document-units="mm"
     inkscape:clip-to-page="true" />
  <defs
     id="defs1" />
  <g
     inkscape:label="Warstwa 1"
     inkscape:groupmode="layer"
     id="layer1">
    <path
       style="fill:#ac2018;fill-opacity:1;stroke:none;stroke-width:1.32292"
       d="m -9.6366114,89.663677 c 0,0 74.2353364,-108.146374 268.8076214,-55.334779 194.57227,52.811589 283.42866,-58.653381 283.42866,-58.653381 L 505.58106,111.54503 c 0,0 -527.437125,-8.22648 -525.345995,-9.209 2.09113,-0.98251 10.1283236,-12.672353 10.1283236,-12.672353 z"
       id="path1"
       sodipodi:nodetypes="csccsc" />
    <path
       style="fill:#1e1e1e;fill-opacity:1;stroke:none;stroke-width:1.32292"
       d="m -12.915788,89.893877 c 0,0 83.108521,-97.4229677 248.499758,-45.463576 93.73676,29.448385 273.29806,57.862749 354.40923,-65.095563 45.29335,-68.66124 -73.87833,133.290932 -73.87833,133.290932 0,0 -532.647078,-4.64968 -533.680341,-7.23284 -1.033263,-2.58316 7.232841,-23.248423 5.166315,-22.731793 -2.066526,0.51663 -0.516632,10.33263 -0.516632,10.33263 z"
       id="path2"
       sodipodi:nodetypes="csscsscc" />
  </g>
</svg>
