<?xml version="1.0" encoding="UTF-8" standalone="no"?>
<svg
   version="1.1"
   width="29.699965cm"
   height="16cm"
   viewBox="0 0 841.89044 453.54387"
   id="svg3"
   sodipodi:docname="logo.svg"
   inkscape:version="1.3 (0e150ed6c4, 2023-07-21)"
   xmlns:inkscape="http://www.inkscape.org/namespaces/inkscape"
   xmlns:sodipodi="http://sodipodi.sourceforge.net/DTD/sodipodi-0.dtd"
   xmlns="http://www.w3.org/2000/svg"
   xmlns:svg="http://www.w3.org/2000/svg">
  <defs
     id="defs3" />
  <sodipodi:namedview
     id="namedview3"
     pagecolor="#ffffff"
     bordercolor="#111111"
     borderopacity="1"
     inkscape:showpageshadow="0"
     inkscape:pageopacity="0"
     inkscape:pagecheckerboard="1"
     inkscape:deskcolor="#d1d1d1"
     inkscape:document-units="in"
     showgrid="false"
     inkscape:zoom="0.72426432"
     inkscape:cx="396.26417"
     inkscape:cy="561.25919"
     inkscape:window-width="1920"
     inkscape:window-height="1009"
     inkscape:window-x="-8"
     inkscape:window-y="-8"
     inkscape:window-maximized="1"
     inkscape:current-layer="svg3" />
  <path
     d="m 337.39222,319.20778 h -11.73243 v -15.15383 h 11.73243 v -13.87504 h 20.86913 v 13.87504 h 32.60106 v 15.15383 h -32.60106 v 19.72194 c 0,3.04631 0.62033,5.17074 1.84255,6.41139 1.24066,1.22222 3.3085,1.84255 6.26086,1.84255 3.32745,0 5.67792,-0.62033 7.01229,-1.87993 1.33536,-1.24066 2.01202,-3.40321 2.01202,-6.48617 0,-0.62033 -0.0563,-1.63618 -0.16948,-3.02737 -0.0374,-0.15054 -0.0566,-0.26269 -0.0566,-0.33846 h 18.50047 c 0.0755,0.62033 0.13209,1.29724 0.16947,2.01203 0.0376,0.71428 0.0566,1.72964 0.0566,3.06401 0,7.87786 -2.2939,13.57497 -6.88169,17.07214 -4.58705,3.47773 -12.08932,5.22632 -22.52377,5.22632 -9.98333,0 -16.99562,-1.5041 -21.03811,-4.49309 -4.04248,-2.98974 -6.05375,-8.17893 -6.05375,-15.54886 z m 119.46261,23.5765 h 19.66536 v 0.88377 c 0,6.78723 -2.06784,11.67535 -6.22273,14.66509 -4.15538,2.98899 -10.99894,4.49309 -20.54987,4.49309 h -19.40243 c -8.72374,0 -15.39832,-1.82336 -20.00456,-5.47081 -4.60624,-3.66665 -6.91932,-8.9306 -6.91932,-15.83074 v -15.75497 c 0,-7.27672 2.31308,-12.84174 6.91932,-16.69555 4.60624,-3.85457 11.24269,-5.79082 19.9106,-5.79082 h 19.49639 c 8.74268,0 15.41676,1.91731 20.00456,5.75268 4.58705,3.83538 6.88119,9.41934 6.88119,16.73369 v 12.38939 h -52.39851 c 0,0.18792 -0.0199,0.45135 -0.0566,0.82719 -0.0374,0.35739 -0.0566,0.60189 -0.0566,0.71504 0,3.34664 0.95878,5.73374 2.89529,7.18201 1.93625,1.44752 5.11416,2.18075 9.56987,2.18075 h 8.76162 c 4.51228,0 7.4447,-0.43216 8.81745,-1.31618 1.35356,-0.88376 2.25651,-2.53814 2.68892,-4.96363 z m -32.62,-17.40959 h 32.18759 v -0.22605 c 0,-2.74476 -0.86532,-4.7002 -2.61391,-5.82846 -1.74858,-1.1467 -4.79415,-1.71045 -9.11851,-1.71045 h -8.61059 c -4.32436,0 -7.38887,0.58294 -9.17484,1.72964 -1.78672,1.16564 -2.66974,3.10215 -2.66974,5.80927 z m 88.13885,36.68092 h -20.86913 v -82.01032 h 20.86913 z m 38.22315,-39.2567 h 4.96289 l 18.01173,-18.74496 h 27.43082 l -27.76927,27.11106 31.62383,30.8906 h -26.4349 l -22.86221,-23.12589 h -4.96289 v 23.12589 h -20.98228 v -82.01032 h 20.98228 z m 94.96422,24.38475 h 9.81436 c 5.00102,0 8.49819,-0.78931 10.52865,-2.34997 2.01202,-1.56042 3.02713,-4.21121 3.02713,-7.95263 v -7.65256 c 0,-3.70328 -1.0343,-6.33563 -3.0837,-7.8963 -2.06785,-1.56067 -5.54658,-2.35047 -10.47208,-2.35047 h -9.81436 c -5.18893,0 -8.76087,0.77086 -10.71657,2.31309 -1.97389,1.54148 -2.95161,4.30517 -2.95161,8.25369 v 7.44495 c 0,3.6664 1.03355,6.27981 3.12059,7.84023 2.06859,1.56066 5.58396,2.34997 10.54759,2.34997 z m -5.50844,15.64257 c -10.43445,0 -17.86095,-1.65438 -22.3174,-4.96363 -4.43677,-3.29007 -6.65565,-8.74269 -6.65565,-16.35711 v -15.75497 c 0,-8.25369 2.16231,-14.06296 6.50511,-17.42878 4.32436,-3.36558 11.789,-5.0384 22.35504,-5.0384 h 21.00047 c 10.24678,0 17.61671,1.69201 22.11054,5.09497 4.49334,3.40321 6.74961,8.94904 6.74961,16.65792 v 16.15 c 0,7.82153 -2.18075,13.3863 -6.56169,16.67637 -4.36174,3.30925 -11.80719,4.96363 -22.29846,4.96363 z m 84.71769,-0.77062 H 703.90092 V 304.3924 h 20.86938 v 8.9306 c 2.1623,-3.57194 4.94444,-6.09189 8.32921,-7.57704 3.36508,-1.4849 8.19712,-2.23732 14.47643,-2.23732 7.46464,0 13.23651,1.07168 17.31638,3.1961 4.06068,2.12492 6.76805,5.47156 8.08422,10.02122 1.99283,-4.62517 4.86967,-7.99075 8.62953,-10.07779 3.76061,-2.08679 8.85558,-3.13953 15.28518,-3.13953 9.70146,0 16.90241,1.73014 21.60261,5.20812 4.7002,3.47798 7.05067,8.76088 7.05067,15.88706 v 37.45179 h -20.86939 v -29.17965 c 0,-5.15155 -1.0151,-8.51638 -3.06451,-10.13362 -2.03046,-1.617 -5.86583,-2.42524 -11.48743,-2.42524 -5.18893,0 -8.89296,1.03429 -11.16792,3.08295 -2.25651,2.0494 -3.38402,5.43343 -3.38402,10.13437 v 28.52119 h -20.86988 v -29.17965 c 0,-5.15155 -1.03355,-8.51638 -3.12059,-10.13362 -2.06835,-1.617 -5.99793,-2.42524 -11.76981,-2.42524 -5.28289,0 -9.11852,1.03429 -11.48718,3.10214 -2.36892,2.08679 -3.5535,5.45262 -3.5535,10.11518 z"
     style="fill:#1b1918;fill-rule:evenodd;stroke-width:2.49228"
     id="path1" />
  <path
     d="m 85.637203,223.99359 h -36.90672 v 20.75623 h 36.90672 c 3.34664,0 5.69637,-0.80825 7.03173,-2.44368 1.33437,-1.63619 2.01127,-4.55041 2.01127,-8.72424 0,-3.34664 -0.71428,-5.77188 -2.14336,-7.29442 -1.42858,-1.52328 -3.74167,-2.29389 -6.89964,-2.29389 z m 0.88327,-20.43698 c 5.58396,0 10.03966,0.26369 13.36786,0.78981 3.309007,0.54556 6.129277,1.41013 8.441617,2.63235 4.15489,2.16181 7.16307,5.3771 9.04275,9.66383 1.86174,4.26778 2.80208,10.17125 2.80208,17.69172 0,11.24269 -1.88068,19.17712 -5.6216,23.82074 -3.74141,4.64363 -10.07779,6.97516 -18.989207,6.97516 h -46.83349 v 20.43672 h -25.11798 v -82.01033 z m 112.261417,20.43698 h -39.82046 v 20.04194 h 39.82046 c 3.34664,0 5.69636,-0.77086 7.03148,-2.33128 1.33462,-1.56067 2.01152,-4.38094 2.01152,-8.4608 0,-3.23349 -0.71429,-5.58396 -2.14287,-7.04992 -1.42907,-1.46671 -3.74141,-2.19994 -6.90013,-2.19994 z m 0.93959,-20.43698 c 13.01047,0 21.84711,1.93651 26.5473,5.79107 4.7002,3.85382 7.05067,10.88605 7.05067,21.09444 0,7.06911 -1.05274,12.35275 -3.13978,15.79335 -2.08678,3.45879 -5.6029,5.77188 -10.5102,6.93752 4.32436,1.03355 7.57704,2.85765 9.73959,5.45187 2.16181,2.61341 3.25243,5.99793 3.25243,10.15281 v 16.78927 h -25.06215 v -12.50229 c 0,-3.23448 -0.75167,-5.45262 -2.27471,-6.65589 -1.52328,-1.22222 -4.53147,-1.8241 -9.00537,-1.8241 h -37.35783 v 20.98228 h -25.11847 v -82.01033 z m 88.49724,83.0065 c -9.56987,0 -16.58241,-0.43242 -21.03811,-1.29699 -4.43726,-0.86482 -8.04733,-2.33153 -10.84866,-4.43676 -3.13953,-2.35047 -5.43343,-5.41498 -6.82437,-9.21248 -1.39194,-3.81693 -2.08704,-8.85558 -2.08704,-15.13538 v -22.35429 c 0,-6.862 0.6951,-12.31462 2.08704,-16.30053 1.39094,-4.00435 3.68484,-7.18201 6.82437,-9.53174 2.76369,-2.06859 6.43034,-3.53505 10.99845,-4.41832 4.56885,-0.88376 11.48793,-1.31617 20.77517,-1.31617 h 29.48047 c 9.32488,0 16.28159,0.43241 20.90677,1.31617 4.60624,0.88327 8.27214,2.34973 10.97926,4.41832 3.04631,2.31234 5.28389,5.47106 6.69327,9.47517 1.41014,4.0051 2.12492,9.11851 2.12492,15.36093 v 22.86222 c 0,6.31669 -0.71478,11.4498 -2.12492,15.39757 -1.40938,3.94853 -3.64696,7.08806 -6.69327,9.43853 -2.74451,2.10523 -6.39221,3.57194 -10.90424,4.43676 -4.51228,0.86457 -11.50638,1.29699 -20.98179,1.29699 z m 6.78699,-20.49255 h 15.90575 c 8.85558,0 14.72142,-1.10932 17.63564,-3.32845 2.89504,-2.21813 4.34281,-6.35457 4.34281,-12.37094 v -11.61878 c 0,-6.01612 -1.44777,-10.15257 -4.34281,-12.37095 -2.91422,-2.21838 -8.78006,-3.32819 -17.63564,-3.32819 h -16.01865 c -9.043,0 -14.96517,1.12825 -17.76649,3.36558 -2.80183,2.23757 -4.21196,6.48616 -4.21196,12.76597 v 11.41242 c 0,5.90322 1.48565,9.96414 4.43751,12.16408 2.95161,2.19994 8.83639,3.30926 17.65384,3.30926 z"
     style="fill:#1b1918;fill-rule:evenodd;stroke:#1b1918;stroke-width:0.538333;stroke-linecap:butt;stroke-linejoin:miter;stroke-dasharray:none"
     id="path2" />
  <path
     d="m 345.32715,18.65412 127.19642,76.090648 c 12.24334,7.324822 16.26738,23.332762 8.94331,35.576102 l -98.19497,164.14477 h -15.39334 v -87.17733 c -3.30551,-21.00646 -25.38565,-33.03048 -25.27623,-53.48216 -0.54881,-13.92039 4.2127,-26.55851 10.98997,-37.91435 2.24455,-3.08869 5.40875,-1.54522 6.04378,0.91616 3.17492,10.98922 6.34984,21.9792 9.52476,32.96842 4.99678,3.97469 15.67173,3.91937 22.68352,1.84952 5.80926,-1.71543 13.72525,-6.81963 15.77964,-13.20536 -2.99099,-10.44042 -5.98297,-20.87985 -8.97496,-31.32027 -0.66693,-3.11685 2.96358,-5.84391 6.4114,-4.39564 11.84383,7.32606 29.91562,17.94942 31.68589,42.85905 1.83183,20.0858 -22.71168,35.40911 -24.17689,53.66309 v 22.44451 L 470.78296,124.36033 320.05589,34.19226 224.47783,193.96357 h -14.24888 l 99.5231,-166.36614 c 7.32407,-12.24334 23.33275,-16.26738 35.5751,-8.94331 z m -8.22753,352.99454 h 488.44491 v 7.77418 H 332.44902 l -25.23038,42.17641 c -7.32407,12.24309 -23.33275,16.26738 -35.5751,8.94331 l -127.19642,-76.0909 c -12.24334,-7.32457 -16.26738,-23.33251 -8.94331,-35.57585 l 14.18658,-23.71483 h 14.24888 l -17.75154,29.67388 150.72707,90.16806 25.93519,-43.35426 h 5.39056 z m -137.91298,-6.17388 36.85763,22.04923 c 1.57113,0.93959 2.08753,2.99323 1.14719,4.56436 l -1.33387,2.2296 c -0.94009,1.57188 -2.99323,2.08779 -4.56436,1.1482 L 194.4351,373.41694 c -1.57139,-0.94009 -2.08779,-2.99324 -1.14745,-4.56512 l 1.33387,-2.2296 c 0.94034,-1.57113 2.99323,-2.08778 4.56512,-1.14744 z"
     style="fill:#e30016;fill-rule:evenodd;stroke:#e30016;stroke-width:0.538333;stroke-linecap:butt;stroke-linejoin:miter;stroke-dasharray:none"
     id="path3" />
</svg>
