<?xml version="1.0" encoding="UTF-8" standalone="no"?>
<!-- Created with Inkscape (http://www.inkscape.org/) -->

<svg
   width="1920"
   height="1080"
   viewBox="0 0 1920 1080"
   version="1.1"
   id="svg1"
   xml:space="preserve"
   inkscape:export-filename="top-header.svg"
   inkscape:export-xdpi="96"
   inkscape:export-ydpi="96"
   xmlns:inkscape="http://www.inkscape.org/namespaces/inkscape"
   xmlns:sodipodi="http://sodipodi.sourceforge.net/DTD/sodipodi-0.dtd"
   xmlns="http://www.w3.org/2000/svg"
   xmlns:svg="http://www.w3.org/2000/svg"><sodipodi:namedview
     id="namedview1"
     pagecolor="#ffffff"
     bordercolor="#000000"
     borderopacity="0.25"
     inkscape:showpageshadow="2"
     inkscape:pageopacity="0.0"
     inkscape:pagecheckerboard="0"
     inkscape:deskcolor="#d1d1d1"
     inkscape:document-units="px" /><defs
     id="defs1" /><g
     inkscape:label="Warstwa 1"
     inkscape:groupmode="layer"
     id="layer1"><path
       style="display:none;fill:#ab1f17;fill-opacity:1;stroke:none;stroke-width:7.55906"
       d="m -32.534759,1060.5241 c 0,0 180.705879,-367.57223 657.112299,-238.20325 C 1100.9839,951.68984 1386.417,838.74866 1575.3368,635.45454 1764.2566,432.16042 1940.8555,74.855607 1940.8555,74.855607 L 1916.2138,1140.6097 -26.374331,1126.2353 Z"
       id="path3"
       sodipodi:nodetypes="csscccc" /><path
       style="display:none;fill:#1e1e1e;stroke:#1e1e1e;stroke-width:7.55906"
       d="m -5.8930481,1041.754 c 0,0 101.8734201,-291.07538 613.9893081,-151.95721 521.58284,141.68991 837.81824,94.45992 1010.31014,-92.40642 142.3144,-154.17397 308.0214,-394.26738 308.0214,-394.26738 l 4.1069,698.18181 -1934.3742722,2.0535 z"
       id="path1"
       sodipodi:nodetypes="csscccc" /><path
       style="display:inline;fill:none;stroke:#1e1e1e;stroke-width:7.55906"
       d="m 1141.7326,-24.641712 c 0,0 64.5044,265.845762 275.1658,246.417112 147.9346,-13.64355 224.7231,-118.63621 414.8021,-12.32086 l 121.1551,67.76471"
       id="path2"
       sodipodi:nodetypes="cssc"
       inkscape:label="path2" /></g></svg>
